<?xml version="1.0" standalone="no"?>
<!DOCTYPE svg PUBLIC "-//W3C//DTD SVG 20010904//EN"
 "http://www.w3.org/TR/2001/REC-SVG-20010904/DTD/svg10.dtd">
<svg version="1.0" xmlns="http://www.w3.org/2000/svg"
 width="1280.000000pt" height="1224.000000pt" viewBox="0 0 1280.000000 1224.000000"
 preserveAspectRatio="xMidYMid meet">
<metadata>
Created by potrace 1.15, written by Peter Selinger 2001-2017
</metadata>
<g transform="translate(0.000000,1224.000000) scale(0.100000,-0.100000)"
fill="#ffc107" stroke="none">
<path d="M5410 10459 c-509 -979 -927 -1785 -930 -1789 -3 -5 -696 -104 -1540
-220 -844 -116 -1811 -249 -2149 -295 -338 -47 -625 -85 -639 -85 -13 0 -22
-4 -20 -10 2 -5 676 -635 1498 -1401 822 -765 1527 -1422 1567 -1459 l72 -67
-34 -189 c-19 -104 -185 -1021 -370 -2039 -184 -1017 -337 -1860 -340 -1873
-5 -19 311 136 1937 949 l1943 972 685 -344 c2589 -1299 3192 -1601 3195
-1597 2 1 -18 125 -45 273 -27 149 -78 434 -114 635 -92 516 -314 1757 -455
2540 l-120 665 33 30 c423 388 3115 2890 3112 2892 -2 3 -980 140 -2173 307
l-2168 302 -85 164 c-47 91 -463 897 -925 1792 l-840 1628 -85 0 -85 0 -925
-1781z"/>
</g>
</svg>
